<svg 
    xmlns="http://www.w3.org/2000/svg" width="179.851" height="120.095">
    <path fill="#777" d="M104.055 54.547h48.38v11h-48.38z"/>
    <path fill="#777" d="M149.336 60.047c-8.046-8.046-11.881-23.957-12.196-34.996 11.031 14.821 25.367 27.747 42.711 34.996-17.344 6.941-31.048 20.649-42.711 34.996.947-11.82 3.835-26.168 12.196-34.996z"/>
    <g fill="#777">
        <path d="M29.301 54.708v10.68l7.983-5.34zM56.856 46.956V32.073L31.855 48.739l11.168 7.471zM88.239 48.739L63.238 32.073v14.883l13.834 9.254zM31.855 71.356l25.001 16.666V73.14l-13.833-9.252zM63.238 73.14v14.882l25.001-16.666-11.167-7.468zM60.047 52.499l-11.285 7.549 11.285 7.549 11.286-7.549z"/>
        <path d="M60.047 0C26.885 0 0 26.884 0 60.048s26.885 60.047 60.047 60.047c33.164 0 60.048-26.883 60.048-60.047S93.211 0 60.047 0zm37.128 71.36c0 .141-.01.279-.028.418-.007.045-.018.092-.025.137-.017.09-.032.18-.056.268-.014.053-.033.104-.05.154a3.62 3.62 0 0 1-.082.234c-.021.053-.048.104-.071.154a3.545 3.545 0 0 1-.108.213c-.028.049-.061.098-.091.146a2.895 2.895 0 0 1-.245.332c-.05.059-.103.117-.158.172-.042.043-.083.086-.127.125a2.663 2.663 0 0 1-.182.152 3.193 3.193 0 0 1-.144.109c-.019.012-.035.027-.054.039L61.817 96.64a3.19 3.19 0 0 1-3.541 0L24.34 74.015c-.018-.012-.034-.027-.052-.039a3.825 3.825 0 0 1-.326-.261c-.044-.039-.086-.082-.128-.125-.056-.055-.107-.113-.159-.172a2.882 2.882 0 0 1-.243-.332l-.092-.146a3.545 3.545 0 0 1-.108-.213c-.024-.051-.049-.102-.071-.154a3.103 3.103 0 0 1-.082-.234 2.764 2.764 0 0 1-.05-.154c-.023-.088-.039-.178-.056-.268-.008-.045-.02-.092-.025-.137a3.069 3.069 0 0 1-.029-.418V48.735c0-.141.011-.279.029-.416.006-.047.018-.092.025-.139.017-.09.032-.18.056-.268.015-.053.032-.104.05-.154.024-.078.051-.156.082-.232.022-.053.047-.105.071-.156a2.986 2.986 0 0 1 .602-.863c.042-.043.084-.086.128-.125.058-.053.118-.104.181-.152.047-.037.095-.074.145-.109.018-.012.034-.027.052-.039l33.938-22.625a3.19 3.19 0 0 1 3.54 0l33.937 22.625c.019.012.035.027.054.039a3.852 3.852 0 0 1 .326.261c.044.039.085.082.127.125a2.553 2.553 0 0 1 .268.311c.048.062.092.127.135.193.03.049.062.098.091.148.039.068.074.139.108.211.023.051.05.104.071.156.031.076.057.154.082.232.017.051.036.102.05.154.023.088.039.178.056.268.008.047.019.092.025.139.019.137.028.275.028.416V71.36z"/>
        <path d="M90.794 65.388v-10.68l-7.982 5.34z"/>
    </g>
</svg>